<?xml version="1.0" encoding="utf-8"?>
<!-- Generator: Adobe Illustrator 16.0.0, SVG Export Plug-In . SVG Version: 6.00 Build 0)  -->
<!DOCTYPE svg PUBLIC "-//W3C//DTD SVG 1.1//EN" "http://www.w3.org/Graphics/SVG/1.1/DTD/svg11.dtd">
<svg version="1.1" id="Layer_2" xmlns="http://www.w3.org/2000/svg" xmlns:xlink="http://www.w3.org/1999/xlink" x="0px" y="0px"
	 width="20.203px" height="20.53px" viewBox="287.435 430.126 20.203 20.53" enable-background="new 287.435 430.126 20.203 20.53"
	 xml:space="preserve">
<path fill="#E27866" d="M301.057,436.181c0.733,1.083,1.166,2.341,1.252,3.646c0.002,0.448-0.079,0.894-0.239,1.313
	c-0.646,1.566-2.103,2.651-3.788,2.823c0.762-0.948,1.18-2.127,1.186-3.344c0.007-0.664-0.135-1.323-0.415-1.927
	c-0.232-0.512-0.567-0.97-0.982-1.349c0.874-0.576,1.848-0.987,2.87-1.211l0,0l0.076-0.015
	C301.03,436.141,301.043,436.16,301.057,436.181L301.057,436.181z"/>
<path fill="#E27866" d="M294.264,436.122l0.065,0.012c1.027,0.224,2.005,0.636,2.883,1.214c-0.417,0.382-0.753,0.843-0.988,1.357
	c-0.277,0.602-0.417,1.257-0.411,1.919c0.005,1.217,0.424,2.396,1.188,3.343c-1.685-0.169-3.139-1.251-3.787-2.814
	c-0.163-0.421-0.245-0.868-0.242-1.319c0.086-1.31,0.522-2.572,1.261-3.658c0.011-0.022,0.021-0.038,0.033-0.055L294.264,436.122z"
	/>
<path fill="#E27866" d="M298.559,438.925c0.246,0.532,0.371,1.113,0.363,1.7c-0.009,1.204-0.465,2.362-1.283,3.248
	c-0.818-0.885-1.276-2.044-1.284-3.249c-0.006-0.583,0.118-1.161,0.361-1.691c0.216-0.475,0.531-0.898,0.924-1.24
	c0.39,0.339,0.704,0.759,0.919,1.229L298.559,438.925z"/>
<path fill="#E27866" d="M297.637,430.133l0.003-0.007c0.868,1.915,1.888,3.759,3.05,5.513c-1.094,0.247-2.129,0.703-3.05,1.343
	c-0.921-0.639-1.957-1.095-3.05-1.343c0.866-1.305,1.653-2.66,2.356-4.06C297.249,430.976,297.48,430.479,297.637,430.133z"/>
<path fill="#E27866" d="M292.3,445.191c-1.506-0.661-2.319-2.297-2.799-4.238c-0.318-1.734-0.756-3.444-1.31-5.119
	c-0.212-0.642-0.4-1.158-0.536-1.521c-0.006-0.016-0.011-0.03-0.017-0.046c1.97,0.741,3.995,1.324,6.057,1.742
	c-0.751,1.14-1.189,2.456-1.268,3.818c-0.002,0.515,0.092,1.025,0.276,1.506c0.722,1.768,2.365,2.988,4.266,3.167
	c-0.846,0.673-1.894,1.042-2.975,1.049c-0.584,0.007-1.162-0.116-1.693-0.358H292.3z"/>
<path fill="#E27866" d="M305.774,440.969c-0.476,1.926-1.29,3.562-2.788,4.22c-0.532,0.245-1.113,0.369-1.701,0.363
	c-1.081-0.006-2.129-0.375-2.976-1.048c1.904-0.181,3.55-1.404,4.27-3.176c0.182-0.479,0.274-0.988,0.272-1.501
	c-0.08-1.361-0.517-2.679-1.269-3.817c1.519-0.307,3.018-0.704,4.489-1.189c0.645-0.212,1.159-0.4,1.52-0.535l0.047-0.018
	c-0.817,2.175-1.44,4.417-1.861,6.7L305.774,440.969z"/>
<path fill="#E27866" d="M291.906,448.601c2.993,2.641,8.274,2.841,11.494,0H291.906z"/>
<path fill="#E27866" d="M297.639,445.212L297.639,445.212c-2.943,2.327-6.551,0.821-7.903,0.108
	c0.396,0.978,0.883,1.854,1.487,2.576h12.859c0.608-0.728,1.098-1.609,1.495-2.596C304.254,446.006,300.609,447.56,297.639,445.212z
	"/>
</svg>
