<?xml version="1.0" encoding="utf-8"?>
<!-- Generator: Adobe Illustrator 16.0.0, SVG Export Plug-In . SVG Version: 6.00 Build 0)  -->
<!DOCTYPE svg PUBLIC "-//W3C//DTD SVG 1.1//EN" "http://www.w3.org/Graphics/SVG/1.1/DTD/svg11.dtd">
<svg version="1.1" id="Layer_2" xmlns="http://www.w3.org/2000/svg" xmlns:xlink="http://www.w3.org/1999/xlink" x="0px" y="0px"
	 viewBox="0 0 600 600" enable-background="new 0 0 600 600"
	 xml:space="preserve">
<path fill="#E27866" d="M400.212,302.595c21.989,32.49,34.978,70.23,37.559,109.379c0.062,13.439-2.37,26.82-7.169,39.39
	c-19.381,46.98-63.09,79.53-113.641,84.69c22.859-28.44,35.399-63.811,35.581-100.319c0.208-19.921-4.052-39.69-12.452-57.811
	c-6.959-15.36-17.008-29.1-29.458-40.471c26.218-17.28,55.438-29.61,86.1-36.33l0,0l2.279-0.45
	C399.401,301.395,399.79,301.965,400.212,302.595L400.212,302.595z"/>
<path fill="#E27866" d="M196.421,300.825l1.95,0.36c30.811,6.72,60.151,19.079,86.489,36.419
	c-12.509,11.459-22.588,25.29-29.639,40.709c-8.311,18.061-12.511,37.71-12.33,57.57c0.149,36.51,12.72,71.88,35.639,100.289
	c-50.549-5.069-94.17-37.53-113.61-84.419c-4.889-12.63-7.35-26.042-7.259-39.571c2.58-39.3,15.659-77.159,37.829-109.74
	c0.33-0.66,0.63-1.14,0.99-1.65L196.421,300.825z"/>
<path fill="#E27866" d="M325.271,384.915c7.38,15.96,11.131,33.39,10.891,51c-0.271,36.12-13.95,70.86-38.49,97.439
	c-24.54-26.55-38.28-61.319-38.52-97.47c-0.181-17.49,3.54-34.831,10.83-50.73c6.48-14.25,15.93-26.941,27.721-37.2
	c11.7,10.17,21.12,22.77,27.569,36.87V384.915z"/>
<path fill="#E27866" d="M297.611,121.155l0.089-0.209c26.042,57.45,56.642,112.77,91.5,165.39
	c-32.818,7.41-63.869,21.089-91.5,40.29c-27.629-19.171-58.71-32.851-91.499-40.29c25.98-39.15,49.59-79.801,70.68-121.8
	C285.971,146.446,292.901,131.535,297.611,121.155z"/>
<path fill="#E27866" d="M137.5,572.895c-45.18-19.829-69.569-68.908-83.97-127.139c-9.541-52.021-22.681-103.321-39.301-153.571
	c-6.36-19.26-12-34.738-16.08-45.629c-0.181-0.479-0.33-0.899-0.51-1.38c59.1,22.23,119.849,39.721,181.709,52.261
	c-22.529,34.2-35.669,73.679-38.04,114.54c-0.061,15.451,2.761,30.75,8.281,45.18c21.659,53.041,70.95,89.64,127.979,95.009
	c-25.38,20.19-56.82,31.261-89.25,31.47c-17.521,0.21-34.86-3.479-50.791-10.739L137.5,572.895L137.5,572.895z"/>
<path fill="#E27866" d="M541.719,446.234c-14.279,57.78-38.698,106.86-83.638,126.601c-15.962,7.35-33.392,11.069-51.03,10.891
	c-32.43-0.181-63.87-11.251-89.28-31.44c57.119-5.43,106.499-42.12,128.099-95.28c5.461-14.37,8.222-29.64,8.16-45.03
	c-2.399-40.83-15.509-80.369-38.068-114.509c45.568-9.211,90.54-21.122,134.668-35.67c19.352-6.361,34.771-12,45.602-16.05
	l1.409-0.541c-24.509,65.249-43.199,132.51-55.83,201L541.719,446.234z"/>
<circle fill="#E27866" cx="297.64" cy="652.445" r="68.5"/>
</svg>
