<?xml version="1.0" encoding="utf-8"?>
<!-- Generator: Adobe Illustrator 16.0.0, SVG Export Plug-In . SVG Version: 6.00 Build 0)  -->
<!DOCTYPE svg PUBLIC "-//W3C//DTD SVG 1.1//EN" "http://www.w3.org/Graphics/SVG/1.1/DTD/svg11.dtd">
<svg version="1.1" id="Layer_3" xmlns="http://www.w3.org/2000/svg" xmlns:xlink="http://www.w3.org/1999/xlink" x="0px" y="0px"
	 viewBox="289.638 431.391 16 18" enable-background="new 289.638 431.391 16 18" xml:space="preserve">
<g>
	<g>
		<path fill="#E27866" d="M293.361,449.391c-0.188,0-0.378-0.03-0.565-0.094c-0.915-0.313-1.403-1.308-1.091-2.222
			c0.186-0.545,0.278-1.104,0.273-1.66c-0.008-1.464-0.5-2.847-1.387-3.896l-0.953-1.13l0.954-1.129
			c0.886-1.048,1.378-2.428,1.385-3.886c0.005-0.563-0.086-1.123-0.271-1.67c-0.311-0.915,0.18-1.909,1.096-2.219
			c0.916-0.313,1.909,0.18,2.219,1.096c0.312,0.92,0.465,1.869,0.457,2.818c-0.009,1.788-0.499,3.519-1.398,4.991
			c0.899,1.474,1.39,3.205,1.399,5c0.008,0.947-0.147,1.896-0.461,2.815C294.769,448.934,294.089,449.391,293.361,449.391z"/>
	</g>
</g>
<g>
	<g>
		<path fill="#E27866" d="M298.638,449.391c-1.104,0-2-0.896-2-2v-14c0-1.104,0.896-2,2-2s2,0.896,2,2v14
			C300.638,448.495,299.742,449.391,298.638,449.391z"/>
	</g>
</g>
<g>
	<g>
		<path fill="#E27866" d="M303.638,449.391c-1.104,0-2-0.896-2-2v-14c0-1.104,0.896-2,2-2s2,0.896,2,2v14
			C305.638,448.495,304.742,449.391,303.638,449.391z"/>
	</g>
</g>
</svg>
